<svg width="972" height="972" viewBox="0 0 972 972" fill="none" xmlns="http://www.w3.org/2000/svg">
<rect width="972" height="972" rx="250" fill="url(#paint0_linear_2_105)"/>
<path fill-rule="evenodd" clip-rule="evenodd" d="M358.669 430.813H526.913V522.396H358.669V715.417H464.787C506.789 715.417 541.147 709.608 567.901 697.91C594.655 686.252 615.636 670.106 630.885 649.434C646.481 627.937 657.098 603.068 661.928 576.721C667.563 547 670.306 516.778 670.118 486.5C670.306 456.222 667.563 426 661.928 396.279C657.103 369.93 646.486 345.06 630.885 323.566C615.636 302.894 594.616 286.748 567.901 275.09C541.147 263.392 506.789 257.583 464.787 257.583H358.669V430.853V430.813ZM250.797 522.396H193V430.853H250.797V166H506.204C553.393 166 594.226 174.413 628.74 191.119C663.254 207.905 691.412 230.781 713.291 259.826C735.13 288.832 751.393 322.805 762.04 361.705C772.687 400.606 777.991 442.231 777.991 486.5C778.258 528.655 772.878 570.647 762.001 611.295C751.393 650.155 735.13 684.168 713.252 713.174C691.412 742.219 663.254 765.095 628.74 781.881C594.226 798.627 553.354 807 506.204 807H250.797V522.396Z" fill="white"/>
<defs>
<linearGradient id="paint0_linear_2_105" x1="486" y1="0" x2="486" y2="972" gradientUnits="userSpaceOnUse">
<stop stop-color="#BFA334"/>
<stop offset="1" stop-color="#5F511A"/>
</linearGradient>
</defs>
</svg>
